<?xml version="1.0" standalone="no"?>
<!DOCTYPE svg PUBLIC "-//W3C//DTD SVG 20010904//EN"
 "http://www.w3.org/TR/2001/REC-SVG-20010904/DTD/svg10.dtd">
<svg version="1.0" xmlns="http://www.w3.org/2000/svg"
 width="900.000000pt" height="828.000000pt" viewBox="0 0 900.000000 828.000000"
 preserveAspectRatio="xMidYMid meet">

<g transform="translate(0.000000,828.000000) scale(0.100000,-0.100000)"
fill="#000000" stroke="none">
<path d="M5250 8183 c-70 -8 -187 -34 -285 -64 -313 -97 -571 -314 -717 -604
-62 -122 -85 -195 -109 -338 l-13 -79 -22 94 c-12 51 -30 113 -39 138 -40 108
-135 270 -221 376 -76 95 -291 251 -433 315 -84 38 -225 79 -341 101 -181 32
-448 15 -637 -41 -211 -63 -430 -195 -583 -352 -77 -79 -160 -180 -160 -194 0
-5 -6 -16 -14 -24 -56 -65 -135 -268 -160 -416 -53 -302 42 -709 229 -991 62
-93 186 -229 249 -273 90 -65 184 -119 236 -137 l55 -19 -55 -3 c-133 -6 -356
-34 -366 -45 -27 -29 -36 -97 -47 -372 -17 -435 -14 -925 6 -1056 17 -115 45
-196 83 -246 18 -24 36 -34 76 -42 71 -14 234 -29 398 -37 l135 -6 50 -77 c60
-91 250 -287 288 -296 15 -4 27 -11 27 -16 0 -6 -29 -98 -64 -207 -91 -277
-191 -594 -216 -682 -12 -41 -38 -129 -60 -195 -21 -66 -61 -196 -89 -290 -29
-93 -84 -269 -123 -390 -39 -121 -88 -276 -108 -345 -20 -69 -67 -222 -104
-340 -76 -245 -115 -371 -211 -690 -9 -30 -18 -60 -21 -66 -9 -22 291 -87 374
-82 l47 3 66 240 c36 132 78 281 93 330 14 50 40 140 57 200 33 116 97 332
156 524 19 63 54 182 78 265 24 83 69 239 100 346 31 107 69 238 85 290 41
133 183 617 213 725 14 50 30 104 36 120 5 17 23 73 38 125 l29 95 197 3 197
2 -7 -237 c-4 -131 -8 -886 -8 -1678 l0 -1440 105 -13 c123 -15 324 -12 341 5
8 8 9 92 0 340 -17 525 -30 1003 -41 1518 -6 264 -15 651 -20 860 -5 209 -10
440 -10 513 l0 132 185 0 c183 0 186 0 194 -22 10 -24 151 -463 196 -608 42
-135 173 -544 214 -670 21 -63 64 -194 94 -290 82 -258 220 -690 287 -895 32
-99 81 -254 110 -345 138 -440 141 -448 165 -454 27 -7 82 3 293 54 54 14 92
28 92 35 0 47 -169 550 -420 1255 -56 157 -117 328 -135 380 -72 205 -166 464
-238 660 -76 206 -191 524 -275 762 l-44 127 32 28 c18 15 36 30 39 33 16 13
142 167 199 243 l62 84 133 6 c261 12 491 42 563 73 35 15 41 35 64 222 15
117 14 115 69 108 25 -3 105 -9 176 -12 72 -4 138 -11 147 -15 9 -5 64 -44
122 -86 149 -111 272 -198 421 -299 72 -48 166 -120 211 -158 164 -144 234
-186 308 -186 33 0 138 54 169 88 28 29 29 35 39 184 13 206 -7 1585 -31 2109
-7 159 -11 181 -32 220 -17 31 -38 51 -69 67 -86 43 -160 13 -346 -140 -126
-103 -552 -470 -657 -566 l-77 -70 -88 -6 c-48 -4 -134 -11 -192 -16 -149 -14
-140 -16 -140 26 0 43 -24 144 -47 198 -13 30 -28 44 -64 61 l-48 22 67 13
c74 14 69 13 197 66 180 74 374 228 555 437 23 26 38 36 50 32 15 -5 25 9 53
67 78 161 116 283 144 453 30 185 -5 447 -89 655 -46 114 -177 317 -260 400
-73 74 -216 174 -340 237 -89 45 -145 66 -334 124 -92 28 -358 46 -484 32z
m405 -327 c97 -27 241 -84 295 -117 77 -46 229 -161 266 -201 194 -207 297
-638 213 -891 -98 -298 -245 -473 -492 -591 -140 -66 -235 -88 -459 -106 -328
-26 -574 51 -755 237 -82 84 -127 154 -178 274 -126 299 -145 533 -63 779 50
149 112 239 248 364 160 148 352 238 560 266 87 12 303 4 365 -14z m-2577 -21
c119 -29 222 -74 307 -134 33 -23 76 -52 95 -65 46 -31 172 -147 166 -153 -2
-3 15 -31 38 -63 53 -72 107 -230 131 -385 20 -123 17 -411 -4 -424 -6 -4 -23
-38 -39 -76 -66 -160 -136 -270 -246 -383 -152 -158 -317 -239 -546 -268 -397
-51 -741 77 -964 359 -86 108 -171 320 -197 490 -15 98 -6 320 16 402 41 148
122 283 237 396 269 265 669 386 1006 304z m1088 -1180 c63 -280 187 -519 352
-677 121 -116 199 -163 359 -219 l88 -30 -90 5 c-137 9 -1380 10 -1393 2 -7
-4 -12 -5 -12 -1 0 3 24 16 53 29 73 32 190 117 259 187 54 56 138 169 138
187 0 4 19 33 41 63 88 115 153 302 175 504 5 39 10 59 11 45 2 -14 10 -56 19
-95z m3038 -887 c19 -199 67 -1971 54 -1983 -5 -5 -124 73 -228 150 -19 14
-52 37 -73 50 -73 48 -333 226 -455 313 l-123 87 -3 361 -3 361 171 169 c224
221 342 332 424 398 70 56 212 155 224 156 3 0 9 -28 12 -62z m-3404 -286 c0
-27 3 -97 7 -155 l6 -107 -170 0 -170 0 -5 138 c-3 75 -3 140 -1 145 2 4 71 7
153 7 88 0 151 4 155 10 14 23 25 7 25 -38z m572 30 c4 -4 10 -68 14 -143 l7
-136 -24 -6 c-13 -4 -90 -7 -171 -7 l-148 0 0 157 0 156 157 -6 c86 -4 160
-10 165 -15z m728 -22 c268 -19 383 -39 400 -71 37 -68 68 -325 78 -649 8
-248 -1 -525 -20 -590 -17 -55 -13 -54 -298 -75 -349 -24 -971 -39 -1650 -38
-1052 2 -1481 32 -1510 108 -10 27 -27 354 -35 685 -6 250 5 489 25 547 14 38
53 53 138 53 l52 0 0 -132 c1 -156 17 -240 55 -277 l25 -26 553 -3 c707 -5
1623 17 1659 39 10 6 14 60 16 230 l4 222 181 -7 c100 -3 247 -11 327 -16z
m-1860 -130 l0 -140 -141 0 c-125 0 -140 2 -135 16 3 9 6 69 6 134 l0 119 78
4 c42 1 103 4 135 5 l57 2 0 -140z m-497 7 c3 -62 9 -121 13 -130 6 -15 -5
-17 -124 -17 l-130 0 -6 78 c-4 42 -9 98 -11 124 l-6 47 38 4 c21 2 79 4 129
5 l91 2 6 -113z m3209 -121 l-4 -63 104 -6 c57 -3 128 -12 158 -20 55 -15 54
-15 -109 -16 l-164 -1 5 -295 c3 -162 3 -294 1 -291 -5 5 -48 169 -63 243 -13
62 -9 244 6 307 7 28 6 28 -34 24 l-41 -3 21 22 c12 13 32 23 44 23 19 0 24 8
34 52 8 40 32 88 44 88 1 0 0 -29 -2 -64z m146 -526 c1 -146 -2 -258 -7 -250
-4 8 -14 38 -20 65 -7 28 -18 61 -24 74 -8 16 -12 91 -12 216 0 183 1 194 25
245 l25 54 6 -70 c4 -38 7 -188 7 -334z m-3119 -1087 c14 -28 14 -33 -1 -33
-37 2 -238 231 -238 272 0 12 226 -215 239 -239z m624 31 c369 -9 394 -24 72
-43 -151 -9 -310 -2 -505 23 l-95 13 45 11 c25 6 79 9 120 7 41 -3 205 -8 363
-11z m-582 -433 c-6 -10 -15 -36 -20 -57 -10 -41 -178 -582 -186 -599 -17 -35
13 169 64 430 14 70 19 81 85 168 57 76 77 95 57 58z m1784 -571 c7 -30 28
-102 45 -160 17 -58 38 -130 46 -160 9 -30 26 -88 40 -129 13 -41 22 -76 21
-78 -2 -1 -29 48 -59 110 -42 84 -80 189 -152 422 -63 203 -94 318 -89 333 4
19 19 -9 70 -130 35 -84 70 -178 78 -208z m-982 68 c21 -305 19 -655 -3 -632
-4 5 -18 45 -30 89 -22 76 -22 92 -17 320 6 223 16 315 36 315 4 0 11 -42 14
-92z m-1439 -1483 c-99 -320 -152 -456 -195 -500 -19 -20 -19 -20 -13 15 4 19
54 177 111 350 78 233 116 335 150 393 25 42 46 77 48 77 1 0 -44 -151 -101
-335z m2978 -276 c21 -63 60 -202 87 -310 28 -108 53 -204 57 -215 13 -35 -12
-1 -26 36 -7 19 -35 87 -63 150 -93 218 -140 384 -122 440 12 39 29 14 67
-101z m-1583 -301 l-3 -371 49 -45 c28 -24 42 -42 33 -39 -9 3 -45 12 -79 19
l-62 13 5 315 c5 288 8 322 28 398 13 45 25 82 28 82 2 0 2 -167 1 -372z"/>
<path d="M5691 7706 c9 -8 161 -96 166 -96 7 0 90 -66 114 -90 23 -23 176
-240 228 -322 24 -38 44 -68 46 -68 4 0 -36 131 -59 197 -38 107 -185 282
-276 328 -53 27 -240 70 -219 51z"/>
<path d="M5000 7643 c-98 -30 -143 -56 -219 -127 -63 -59 -147 -182 -160 -235
-11 -42 -25 -161 -19 -161 2 0 40 71 84 157 85 168 115 207 210 268 32 21 75
48 94 61 19 12 53 31 75 43 52 26 38 25 -65 -6z"/>
<path d="M5255 7603 c-44 -9 -172 -56 -195 -72 -14 -9 -38 -23 -53 -31 -46
-23 -179 -161 -216 -222 -129 -221 -144 -455 -42 -673 32 -69 133 -198 182
-234 179 -132 292 -174 474 -175 61 0 137 6 170 13 114 25 270 104 363 183 55
47 140 169 169 240 27 70 28 80 28 243 0 151 -3 177 -23 236 -81 235 -315 428
-582 479 -91 18 -224 24 -275 13z m360 -188 l120 -34 -161 0 -161 -1 -129 -46
c-115 -41 -134 -51 -174 -93 -41 -43 -151 -172 -185 -217 -29 -39 -13 2 47
118 41 79 74 130 99 152 78 66 294 155 379 156 25 0 99 -16 165 -35z m-598
-740 c43 -111 126 -184 243 -212 l55 -13 -60 4 c-86 6 -170 40 -220 91 -46 46
-70 105 -80 195 l-7 55 21 -25 c11 -14 33 -56 48 -95z"/>
<path d="M6242 6751 c-18 -41 -93 -251 -99 -278 -3 -12 -51 -73 -107 -135 -95
-106 -98 -111 -56 -87 25 15 71 41 104 59 78 44 110 91 135 198 23 99 45 245
40 261 -2 6 -10 -2 -17 -18z"/>
<path d="M4710 6478 c0 -2 7 -25 15 -53 9 -27 20 -66 25 -85 7 -28 29 -52 97
-107 49 -39 113 -86 143 -104 l55 -34 160 -2 c181 -3 181 4 -3 38 -82 15 -133
31 -170 51 -63 36 -181 141 -258 232 -50 58 -64 73 -64 64z"/>
<path d="M2850 7707 c0 -2 33 -12 73 -21 193 -46 303 -84 362 -125 28 -19 55
-39 60 -45 6 -6 39 -36 75 -65 36 -30 72 -62 80 -70 8 -9 30 -29 49 -46 31
-27 29 -22 -20 48 -96 139 -159 192 -327 275 l-97 47 -127 3 c-71 2 -128 2
-128 -1z"/>
<path d="M2623 7575 c-232 -63 -387 -193 -498 -419 -119 -241 -94 -498 70
-711 184 -241 456 -345 759 -290 164 29 336 128 449 258 116 133 148 227 148
432 0 243 -44 353 -205 509 -147 142 -209 179 -330 197 -39 6 -112 17 -162 25
-110 17 -163 17 -231 -1z m357 -215 l135 -39 -161 0 -161 -1 -129 -46 c-150
-53 -145 -48 -364 -314 -21 -26 59 146 101 217 14 23 37 52 52 63 69 55 308
155 377 158 8 1 76 -16 150 -38z m-615 -659 c26 -104 97 -183 202 -227 l58
-24 -37 0 c-51 0 -142 36 -184 73 -50 43 -75 98 -83 185 l-7 75 22 -29 c13
-15 26 -39 29 -53z m302 -257 c-3 -3 -12 -4 -19 -1 -8 3 -5 6 6 6 11 1 17 -2
13 -5z"/>
<path d="M1977 7156 c-71 -158 -93 -322 -63 -467 19 -92 85 -208 176 -309 l40
-45 -26 60 c-37 88 -87 219 -115 305 -31 95 -31 234 -1 399 12 63 20 116 19
117 -1 1 -14 -26 -30 -60z"/>
<path d="M3620 6612 c-14 -26 -41 -74 -61 -107 -20 -33 -44 -76 -53 -96 -9
-20 -34 -53 -55 -75 -21 -21 -59 -64 -85 -94 -27 -30 -59 -67 -73 -82 -13 -16
-22 -28 -19 -28 16 0 98 44 121 66 14 13 34 28 45 34 34 18 137 163 163 230
24 60 53 187 45 196 -2 1 -15 -18 -28 -44z"/>
<path d="M2340 6155 c0 -11 134 -107 171 -123 98 -42 251 -49 374 -18 l50 13
-130 8 c-106 6 -146 12 -215 37 -184 64 -250 87 -250 83z"/>
<path d="M7075 5632 c-16 -15 -48 -42 -71 -59 -23 -18 -58 -53 -78 -78 l-38
-46 34 23 c18 13 53 38 77 56 37 27 71 41 71 29 0 -2 5 -30 11 -63 6 -32 15
-117 19 -189 6 -126 7 -122 11 113 2 133 2 242 -1 242 -3 0 -18 -13 -35 -28z"/>
<path d="M6783 5266 l-243 -238 0 -232 c0 -127 3 -247 7 -266 5 -33 20 -45
226 -180 121 -80 233 -154 250 -165 l30 -19 -7 559 c-5 308 -11 609 -15 670
l-6 109 -242 -238z"/>
<path d="M6811 4218 c51 -66 246 -247 277 -259 13 -5 28 -6 34 -3 6 4 8 60 6
144 -2 76 -6 133 -9 127 -4 -7 -15 -47 -25 -89 -11 -43 -22 -78 -25 -78 -4 0
-70 47 -148 105 -78 58 -144 105 -147 105 -2 0 14 -24 37 -52z"/>
<path d="M4880 5371 c-13 -9 -12 -11 5 -11 53 -1 513 -48 522 -53 5 -3 18 -50
28 -104 16 -86 20 -94 27 -68 5 17 10 65 11 108 2 95 -2 100 -106 115 -108 16
-469 26 -487 13z"/>
<path d="M4640 5290 c-1 -3 -5 -72 -9 -155 l-6 -149 -35 -9 c-19 -5 -69 -15
-110 -23 -110 -21 -107 -22 30 -23 69 0 132 4 140 9 21 13 25 193 7 285 -8 39
-16 68 -17 65z"/>
<path d="M4849 5264 c-68 -20 -73 -30 -65 -127 21 -256 21 -246 -3 -271 l-22
-24 -1225 -7 -1224 -7 0 -253 0 -253 143 -6 c192 -8 1633 -27 1649 -22 7 3
168 10 358 16 536 17 743 33 827 62 43 15 51 50 64 275 8 132 8 226 0 340 -16
235 -23 249 -133 279 -71 19 -306 18 -369 -2z m-766 -569 c166 -8 419 -18 562
-22 l260 -7 -155 -12 c-85 -7 -171 -15 -190 -19 -42 -8 -574 10 -735 25 -119
11 -145 17 -145 30 0 22 39 23 403 5z m-655 -15 c147 -10 187 -19 161 -36 -19
-12 -521 -8 -684 6 -305 25 -381 34 -350 42 39 9 686 1 873 -12z m172 -111
c428 -1 440 -2 320 -15 -69 -7 -188 -20 -265 -29 -117 -13 -163 -14 -280 -4
-77 6 -185 14 -240 18 -89 6 -145 20 -145 38 0 3 37 3 83 0 45 -4 282 -7 527
-8z"/>
<path d="M2145 5216 c-13 -87 -10 -339 5 -419 20 -107 27 -78 36 145 5 138 3
202 -6 252 -8 36 -17 66 -21 66 -4 0 -11 -20 -14 -44z"/>
<path d="M3005 4936 c-44 -7 -75 -14 -70 -15 91 -13 331 -21 500 -15 205 7
209 8 160 22 -69 20 -480 25 -590 8z"/>
<path d="M5432 4465 c-12 -77 -22 -152 -22 -166 0 -26 0 -26 -122 -38 -119
-12 -357 -69 -293 -70 41 -1 469 30 474 35 6 6 0 297 -8 339 -6 35 -9 23 -29
-100z"/>
<path d="M2196 4515 c-5 -11 -11 -65 -13 -120 -4 -76 -2 -109 10 -136 14 -34
19 -37 78 -48 35 -6 147 -13 249 -15 193 -5 191 -4 -45 32 -77 12 -160 28
-185 35 l-44 13 -17 110 c-24 159 -23 153 -33 129z"/>
<path d="M3590 4220 c-36 -5 -85 -13 -110 -18 l-45 -8 50 -7 c237 -31 661 -40
882 -18 257 26 140 43 -307 46 -173 1 -335 5 -360 8 -25 3 -74 1 -110 -3z"/>
</g>
</svg>
